<svg version="1.1" id="Layer_1" xmlns="http://www.w3.org/2000/svg" xmlns:xlink="http://www.w3.org/1999/xlink" x="0px" y="0px"
	 width="100%" viewBox="0 0 1024 1024" enable-background="new 0 0 1024 1024" xml:space="preserve">
<path fill="#000000" opacity="1.000000" stroke="none" 
	d="
M397.659973,617.776001 
	C391.702972,620.387939 386.320953,623.076721 381.155029,626.583496 
	C368.310089,635.303101 354.467529,634.176636 341.275177,627.522522 
	C335.569153,624.644531 329.770142,622.484314 323.794434,620.514465 
	C312.037598,616.638855 302.373932,609.841064 295.330597,599.597046 
	C293.574310,597.042603 291.504730,595.740112 288.436066,595.369263 
	C261.871368,592.158997 241.787598,572.694275 237.678879,546.393799 
	C234.950562,528.929443 236.938782,512.122559 245.283310,496.449371 
	C249.439270,488.643402 251.592728,480.521637 252.658447,471.818146 
	C257.075562,435.744598 280.810699,408.474365 315.896088,398.539429 
	C336.351318,392.747223 356.839172,391.550751 377.400146,397.753967 
	C383.677124,399.647766 389.415222,402.694092 394.146118,407.370911 
	C395.480347,408.689941 396.933472,409.513855 398.852539,409.913971 
	C424.296478,415.219299 437.373383,432.424103 443.351135,456.399292 
	C444.932861,462.743134 445.535339,469.184509 445.306854,475.710938 
	C445.043152,483.242523 446.989502,490.145569 450.796112,496.659454 
	C457.573181,508.256592 462.407684,520.421204 463.596252,534.098206 
	C465.683716,558.118652 451.871643,581.441406 429.346619,590.109009 
	C425.729279,591.500916 423.115814,593.391235 421.035583,596.702148 
	C415.333740,605.777222 407.524078,612.674072 397.659973,617.776001 
M262.097656,541.167114 
	C262.924957,542.981445 263.511139,544.961426 264.623047,546.580261 
	C268.537140,552.278870 272.887207,557.050049 281.010925,554.879395 
	C284.608887,553.918030 285.814484,556.509399 286.383270,559.752319 
	C288.620941,572.509827 292.633331,584.596802 300.571991,595.078186 
	C307.256409,603.903564 315.937836,609.905090 327.074646,614.060974 
	C326.484589,612.610229 326.266388,612.042053 326.024200,611.484314 
	C325.321106,609.865173 323.702332,607.952148 325.884399,606.648560 
	C328.058380,605.349854 329.129181,607.553162 330.030762,609.077637 
	C331.583923,611.703735 333.628113,613.837769 335.930756,615.796265 
	C350.092468,627.841797 375.483002,630.242371 388.174957,609.587708 
	C389.113220,608.060852 390.144714,606.243286 392.342438,606.495544 
	C395.116669,606.813965 393.123260,609.591675 394.282928,610.868225 
	C396.957520,610.037231 399.092987,608.423950 401.191162,606.821655 
	C420.051849,592.418579 427.130798,572.293335 426.249176,549.724365 
	C425.599670,533.096680 424.260345,516.472534 424.974365,499.847443 
	C425.314789,491.921051 423.106171,485.929565 416.970734,481.185699 
	C416.314575,480.678375 415.753510,480.049683 415.132660,479.494781 
	C405.644928,471.015106 396.938263,461.891449 390.978607,450.468719 
	C390.391510,449.343475 389.830444,448.000092 387.658478,447.923401 
	C382.957184,454.318115 377.083435,460.081543 370.063385,466.685150 
	C374.757233,466.685150 378.019592,466.631744 381.279449,466.699097 
	C385.090057,466.777802 388.953979,466.245819 392.665527,467.636658 
	C393.799805,468.061707 395.003387,468.482208 394.825958,469.940765 
	C394.640900,471.462341 393.330139,471.582764 392.141235,471.476593 
	C390.319092,471.313904 388.516205,470.886139 386.693420,470.787506 
	C375.611176,470.187927 364.469116,469.411591 354.790894,478.728668 
	C359.665527,478.161407 363.686554,477.549683 367.730682,477.251251 
	C377.856415,476.503998 387.997894,475.903015 398.071564,477.815369 
	C399.672974,478.119415 401.708984,478.665039 401.043304,480.926056 
	C400.465637,482.888306 398.593781,482.072327 397.175049,481.904663 
	C386.216766,480.609589 375.277771,480.755615 364.307312,481.935516 
	C360.583557,482.335999 356.519409,483.887421 353.114746,482.115997 
	C350.855957,480.940765 349.523499,481.246490 347.739716,482.216614 
	C333.010498,490.226990 317.382355,495.802277 301.022064,499.355225 
	C298.082001,499.993713 296.580017,501.324310 296.110229,504.593231 
	C295.158691,511.214203 293.290436,517.630127 288.784119,522.895264 
	C283.931091,528.565430 280.219482,528.541748 275.506256,522.846619 
	C270.320953,516.581055 265.047668,517.405640 262.131927,525.135620 
	C260.255707,530.109741 260.733093,535.283264 262.097656,541.167114 
M268.003113,580.490967 
	C273.677246,583.799011 279.388275,586.999329 287.231018,587.375732 
	C283.983856,579.674866 281.595825,572.634644 280.066772,565.337219 
	C279.583038,563.028687 277.464539,562.933716 275.678040,562.789795 
	C257.839355,561.352966 248.299133,534.567688 255.751007,520.477295 
	C261.062958,510.433228 270.906311,508.659454 279.256195,516.348267 
	C280.092316,517.118164 280.719086,518.202637 282.623230,518.397705 
	C286.960846,513.873962 288.474854,508.113586 289.209351,501.629456 
	C287.725098,501.563782 287.057739,501.425873 286.426697,501.523193 
	C280.465576,502.442719 274.468781,502.646088 268.499908,501.910095 
	C266.067261,501.610138 263.028809,500.790039 263.205902,497.648926 
	C263.395935,494.277100 266.463470,494.398285 268.994171,494.509857 
	C298.991913,495.831818 326.258087,487.149628 351.288971,471.258026 
	C366.819244,461.398193 380.016510,449.026672 387.446869,431.609467 
	C388.386993,429.405731 389.198029,426.683960 392.160645,427.655792 
	C395.144958,428.634766 395.907104,431.462006 394.710510,434.253937 
	C393.226044,437.717590 394.194946,440.773010 395.571075,443.852142 
	C397.898590,449.059937 401.082764,453.719910 404.718475,458.104645 
	C411.436920,466.207306 419.318024,473.177155 426.582306,480.746063 
	C431.108215,485.461761 434.325592,490.694611 432.534973,497.784668 
	C431.978271,499.988953 432.471497,502.438354 432.265533,504.756104 
	C431.975861,508.015930 432.881256,510.028748 436.432404,510.900391 
	C440.541748,511.909027 443.153107,514.938354 444.992249,518.730225 
	C450.957245,531.028992 447.105621,547.754211 436.250214,556.252258 
	C435.211090,557.065735 433.667755,557.603088 433.565582,559.041382 
	C433.043365,566.391663 431.065521,573.501404 429.371246,581.077026 
	C446.709595,574.108521 458.776367,552.569641 456.493408,534.405151 
	C455.187347,524.013428 452.795593,513.890076 447.200684,505.124207 
	C439.676392,493.335510 438.174835,480.559204 437.498505,467.045898 
	C436.534760,447.789520 428.298553,431.584839 411.035706,422.207886 
	C400.785095,416.639862 389.035248,413.826752 379.459198,406.647247 
	C378.952057,406.267029 378.215210,406.193451 377.585541,405.976471 
	C357.092529,398.915466 336.501587,399.850952 316.280975,406.479553 
	C284.738586,416.819489 265.262238,438.196381 260.306793,471.493591 
	C258.772064,481.806091 256.499054,491.558746 251.328903,500.774445 
	C245.139709,511.806580 243.920105,524.102417 244.205872,536.588257 
	C244.627487,555.009216 251.933746,569.711670 268.003113,580.490967 
M432.285065,528.382874 
	C432.864960,534.008484 432.777313,539.741272 434.999878,545.310425 
	C439.383728,540.881836 441.257263,535.541382 440.453888,529.675903 
	C439.809540,524.971680 439.333710,519.649292 433.183319,517.484009 
	C431.361725,520.896057 432.331360,524.231812 432.285065,528.382874 
z"/>
<path fill="#000000" opacity="1.000000" stroke="none" 
	d="
M587.332153,457.000061 
	C587.330383,472.488861 587.176697,487.480133 587.419800,502.464996 
	C587.494751,507.087524 585.961304,508.764069 581.407104,508.381226 
	C577.768616,508.075378 574.066895,508.087555 570.424988,508.369385 
	C566.129089,508.701843 564.540039,507.243896 564.655701,502.751373 
	C564.942810,491.600372 564.755554,480.437164 564.758606,469.278839 
	C564.759094,467.476501 564.758606,465.674164 563.796387,463.498810 
	C561.831238,466.835419 559.819641,470.145752 557.910339,473.514008 
	C553.559021,481.190094 549.344360,488.944855 544.908020,496.570984 
	C541.571106,502.307251 532.316040,502.007812 529.011963,496.211700 
	C523.167786,485.959808 517.289490,475.727356 510.301544,465.565826 
	C510.301544,468.237000 510.299622,470.908203 510.301849,473.579376 
	C510.309906,483.238800 510.088165,492.906342 510.426910,502.554199 
	C510.593536,507.299652 508.846649,508.710754 504.376984,508.383698 
	C500.069427,508.068512 495.719757,508.219055 491.392334,508.322601 
	C488.405426,508.394073 487.391327,507.275787 487.431122,504.174194 
	C487.618958,489.531616 487.588562,474.885834 487.578491,460.241241 
	C487.570587,448.763245 487.566956,437.283783 487.364929,425.808411 
	C487.311005,422.746277 488.347870,421.443939 491.362335,421.718201 
	C491.527344,421.733246 491.695282,421.720734 491.861694,421.715393 
	C507.924408,421.199402 507.944061,421.187836 516.121826,435.085785 
	C522.947693,446.686279 529.720337,458.318085 536.705078,470.258362 
	C539.154541,468.636353 539.958130,466.391174 541.076416,464.472412 
	C548.537903,451.669922 556.020813,438.877930 563.274963,425.958008 
	C565.055908,422.786133 567.151428,421.347137 570.799927,421.616516 
	C574.444336,421.885651 578.136475,421.878479 581.783936,421.635712 
	C585.839233,421.365784 587.441040,422.845764 587.358154,427.023560 
	C587.163269,436.845367 587.319153,446.674133 587.332153,457.000061 
z"/>
<path fill="#000000" opacity="1.000000" stroke="none" 
	d="
M569.861328,530.682007 
	C570.200134,534.198914 570.386353,537.352844 570.391846,540.507019 
	C570.433838,564.484070 570.380188,588.461487 570.523804,612.437805 
	C570.545166,616.003601 569.192810,617.310059 565.853699,617.040588 
	C565.688354,617.027283 565.517944,617.023010 565.354492,617.046570 
	C555.001831,618.531738 547.336548,615.585144 540.924927,606.362671 
	C532.323181,593.989868 521.964600,582.838379 511.318451,569.896057 
	C511.318451,576.620972 511.317932,581.859497 511.318573,587.097961 
	C511.319519,595.427368 511.215088,603.758850 511.374207,612.085266 
	C511.439117,615.482849 510.211761,616.989685 506.775787,616.927246 
	C501.613617,616.833496 496.447876,616.897095 491.284149,616.944702 
	C488.356842,616.971741 487.316925,615.809204 487.341553,612.697571 
	C487.544495,587.058777 487.681641,561.417725 487.525787,535.779297 
	C487.495972,530.868347 489.236206,530.110107 493.780853,529.511414 
	C504.487213,528.100830 511.275330,532.224487 517.420044,540.860657 
	C526.073792,553.023193 536.138062,564.182007 545.661682,575.846497 
	C547.491882,574.392395 546.719849,572.623047 546.729126,571.119324 
	C546.803101,559.125488 546.891479,547.129639 546.738159,535.137451 
	C546.686340,531.084900 548.048889,529.305176 552.238586,529.654114 
	C558.018127,530.135376 563.869324,528.980286 569.861328,530.682007 
z"/>
<path fill="#000000" opacity="1.000000" stroke="none" 
	d="
M775.059448,611.172058 
	C763.655090,618.282043 751.770264,619.818787 739.292603,616.202637 
	C722.766479,611.413086 711.931946,595.663940 713.872803,579.593018 
	C716.053162,561.540100 729.482117,548.745605 747.385315,547.747925 
	C761.185608,546.978821 773.613098,550.039917 782.674927,561.383057 
	C793.416016,574.828125 792.778076,598.634888 775.059448,611.172058 
M762.850220,593.255188 
	C763.617859,591.611328 764.606934,590.033020 765.116516,588.312744 
	C767.960266,578.713135 764.001099,569.517273 756.193298,567.328735 
	C748.960083,565.301331 742.105164,568.244263 739.047424,574.689880 
	C735.546631,582.069641 737.638062,592.218750 743.527344,596.428955 
	C749.164734,600.459106 756.620422,599.441162 762.850220,593.255188 
z"/>
<path fill="#000000" opacity="1.000000" stroke="none" 
	d="
M606.693237,589.578796 
	C607.595459,596.206177 614.590515,600.260010 623.028564,599.316528 
	C627.377625,598.830200 631.631714,597.908325 635.036377,594.938904 
	C637.385132,592.890381 639.021057,593.449524 640.847656,595.651550 
	C642.325134,597.432678 644.156311,598.925293 645.863525,600.510376 
	C650.822693,605.114990 651.082886,606.212708 645.711731,610.018982 
	C631.525696,620.071716 616.114380,620.611328 600.765625,613.517212 
	C586.874329,607.096802 581.304688,595.063721 581.720337,580.108398 
	C582.189514,563.230164 594.456055,550.965576 613.617981,548.042847 
	C632.945618,545.094971 649.400513,555.760132 653.777161,574.028870 
	C654.724121,577.981689 654.336914,581.973267 654.348083,585.955322 
	C654.357910,589.440369 651.811462,589.287781 649.436951,589.290588 
	C637.283630,589.304993 625.130371,589.300903 612.977051,589.316956 
	C610.981323,589.319580 608.985779,589.390320 606.693237,589.578796 
M617.527954,576.000305 
	C621.180847,575.981812 624.833984,575.987183 628.486450,575.936890 
	C631.089661,575.900940 632.223572,574.899048 631.003479,572.176697 
	C629.125977,567.987854 623.024780,564.865479 617.550903,565.412903 
	C611.260925,566.041931 607.309326,569.490845 606.272705,575.460144 
	C609.651672,576.463196 613.135742,575.776184 617.527954,576.000305 
z"/>
<path fill="#000000" opacity="1.000000" stroke="none" 
	d="
M727.139038,502.584717 
	C720.075500,508.688446 711.898743,510.065674 703.142578,509.244843 
	C689.729858,507.987396 680.428955,497.932617 679.857971,483.121674 
	C679.370972,470.488098 679.793518,457.820892 679.715454,445.169159 
	C679.695740,441.974091 681.037903,440.657440 684.200317,440.723816 
	C689.026001,440.825104 693.860474,440.869904 698.681824,440.687592 
	C702.156433,440.556213 703.384583,441.982056 703.351257,445.390228 
	C703.248718,455.877228 703.207581,466.369171 703.419922,476.853607 
	C703.610413,486.259491 708.997559,490.579498 717.646118,488.660461 
	C723.042297,487.463135 726.560181,482.625031 726.641296,475.839355 
	C726.758667,466.018219 726.864380,456.190857 726.630005,446.374390 
	C726.524048,441.939331 728.193054,440.436981 732.482971,440.684906 
	C737.128784,440.953400 741.803040,440.796692 746.463318,440.723450 
	C749.171814,440.680878 750.376282,441.812317 750.370728,444.577240 
	C750.330872,464.554749 750.336487,484.532410 750.377197,504.509949 
	C750.382874,507.293884 749.107239,508.369232 746.420166,508.318115 
	C742.259766,508.238953 738.069946,508.006744 733.941833,508.381378 
	C729.449402,508.789124 727.521729,506.917511 727.139038,502.584717 
z"/>
<path fill="#000000" opacity="1.000000" stroke="none" 
	d="
M641.001099,481.170471 
	C635.173401,481.206787 629.845337,481.228821 624.517761,481.291321 
	C624.050049,481.296814 623.585510,481.567780 623.129395,481.712311 
	C623.761169,486.247528 627.494995,489.891602 632.862488,490.561523 
	C639.217163,491.354645 645.582886,491.413300 650.880737,486.865387 
	C652.788025,485.228058 654.302734,485.368866 656.004700,487.195770 
	C658.158936,489.508118 660.394653,491.769745 662.790955,493.825195 
	C666.001831,496.579285 665.176758,498.800873 662.309570,501.087158 
	C650.895020,510.189056 637.884094,511.046539 624.423096,507.835358 
	C607.709045,503.848175 596.501343,488.526733 597.983032,472.566040 
	C599.745422,453.581207 612.796326,440.753754 631.371765,439.748962 
	C650.186707,438.731201 663.309875,446.583191 668.507019,461.967712 
	C668.719971,462.598083 668.980347,463.216034 669.145447,463.858582 
	C673.132935,479.382843 671.711975,481.253510 655.987915,481.206848 
	C651.158875,481.192535 646.329834,481.180206 641.001099,481.170471 
M646.941528,464.531586 
	C643.719666,456.080109 629.339966,454.787140 623.681946,463.244720 
	C622.140930,465.548218 621.443481,467.824219 625.400085,467.923309 
	C631.868286,468.085419 638.343994,467.987030 644.815918,467.928223 
	C646.493835,467.912994 647.819519,467.332123 646.941528,464.531586 
z"/>
<path fill="#000000" opacity="1.000000" stroke="none" 
	d="
M705.815735,597.788574 
	C709.123962,601.871582 709.168701,606.956787 711.200256,611.300842 
	C711.734070,612.442261 711.313049,613.669556 710.103333,614.289307 
	C700.604004,619.154907 690.855957,619.126282 681.178467,615.140320 
	C673.118591,611.820557 669.398865,605.086975 668.766113,596.723877 
	C668.352905,591.261780 668.649658,585.745728 668.634949,580.253845 
	C668.627808,577.591003 668.474060,574.915955 668.675293,572.268311 
	C668.959534,568.527832 667.323303,566.957031 663.713074,567.437073 
	C658.929871,568.072998 657.433777,565.707092 657.843506,561.353943 
	C657.967590,560.035095 657.985901,558.674927 657.814026,557.364990 
	C657.143250,552.250793 658.160095,548.784058 664.485596,549.668640 
	C666.711853,549.980042 667.876770,548.672668 667.837952,546.389465 
	C667.829468,545.890747 667.854553,545.391235 667.872437,544.892334 
	C668.319885,532.374695 668.319092,532.314575 681.033386,532.102234 
	C693.320740,531.897034 691.913879,531.558716 691.937683,542.654358 
	C691.953125,549.834045 692.035156,549.903503 699.120789,549.912476 
	C708.080200,549.923767 708.080200,549.923767 708.036377,559.020691 
	C707.995972,567.413452 707.995972,567.413452 699.359924,567.414429 
	C692.044861,567.415222 692.023743,567.415161 692.012085,574.815857 
	C692.003967,579.974731 691.994690,585.135254 692.108398,590.292297 
	C692.293945,598.707153 695.642578,600.981506 703.562683,598.199280 
	C704.184082,597.981018 704.837708,597.854858 705.815735,597.788574 
z"/>
<path fill="#000000" opacity="1.000000" stroke="none" 
	d="
M397.440826,574.750732 
	C396.519592,573.156799 395.869049,571.735962 393.361908,571.614380 
	C386.854340,583.147888 377.818054,592.492310 363.179321,591.947449 
	C349.056213,591.421814 339.649139,582.924194 333.636322,570.468018 
	C328.927216,571.855225 328.966125,575.850830 327.660950,578.861389 
	C326.957062,580.485046 326.990448,582.901489 324.375458,582.304016 
	C322.206818,581.808411 322.830505,579.668152 322.722290,578.083374 
	C322.554535,575.626221 323.511200,573.308655 320.630005,571.107117 
	C318.227600,569.271484 320.216339,566.531738 322.831635,566.065308 
	C331.009460,564.606873 336.569061,559.768982 340.936127,553.105896 
	C341.757843,551.852112 342.790802,550.431152 344.552155,551.421265 
	C346.286682,552.396362 345.685181,554.065430 345.070709,555.416565 
	C343.498840,558.872803 341.622437,562.169189 338.196289,565.741516 
	C355.840698,569.538513 372.394623,570.105347 389.908966,566.872925 
	C387.373627,562.589600 384.630676,559.596802 383.351593,555.802673 
	C382.821899,554.231384 381.914368,552.318176 383.880463,551.395142 
	C385.971191,550.413635 386.720825,552.535095 387.462494,553.932434 
	C391.073456,560.735901 396.366241,565.460938 403.865387,567.578674 
	C405.290466,567.981140 406.960815,568.295715 407.090942,570.193420 
	C407.231445,572.242554 405.588074,572.457458 404.093140,572.808350 
	C402.015137,573.296143 402.422760,574.966553 402.473755,576.441711 
	C402.527832,578.004456 403.475037,580.130676 400.991852,580.463867 
	C398.681091,580.773865 398.815857,578.394714 398.154114,576.995117 
	C397.872894,576.400330 397.762024,575.725159 397.440826,574.750732 
M377.100494,580.711121 
	C379.013397,579.196167 380.969666,577.718201 382.418488,574.729858 
	C369.138550,576.211121 356.534668,576.182068 343.349518,573.498779 
	C351.315521,585.220154 364.565857,587.958130 377.100494,580.711121 
z"/>
<path fill="#000000" opacity="1.000000" stroke="none" 
	d="
M366.675171,524.939392 
	C366.528961,520.614990 366.784058,516.824036 368.427216,513.246338 
	C369.065033,511.857574 369.727570,510.239502 371.580566,510.694427 
	C373.485992,511.162262 373.388794,512.934631 373.031158,514.411255 
	C370.917755,523.136841 372.824829,531.196350 376.911682,538.929260 
	C377.376831,539.809326 377.750061,540.739136 378.147095,541.654053 
	C381.250214,548.804199 380.563690,553.606445 375.976746,556.876892 
	C370.890381,560.503418 360.465454,559.860107 356.258453,555.670837 
	C355.529114,554.944519 354.836548,554.186340 355.301086,553.083252 
	C355.858154,551.760498 357.091644,551.668945 358.262451,551.822571 
	C360.727539,552.146118 363.168518,552.856323 365.634186,552.932922 
	C372.298004,553.140076 374.451965,550.046387 371.950317,543.929626 
	C369.501465,537.942017 366.394165,532.165161 366.675171,524.939392 
z"/>
<path fill="#000000" opacity="1.000000" stroke="none" 
	d="
M343.030151,532.819397 
	C341.628479,535.711365 339.845612,534.007874 338.299591,533.494812 
	C330.738098,530.985413 323.320221,530.894714 315.989105,534.362000 
	C314.630585,535.004578 312.889221,536.872314 311.660004,534.790894 
	C310.427979,532.704712 312.593536,531.612000 314.037018,530.546875 
	C314.699371,530.058167 315.434052,529.667419 316.159729,529.217468 
	C316.059937,527.880920 314.980072,528.418640 314.349274,528.277832 
	C313.126923,528.005066 311.963684,527.601501 312.010406,526.168396 
	C312.065887,524.466125 313.486389,524.049072 314.850677,523.981323 
	C317.699158,523.839844 320.517090,524.104431 323.051086,525.580444 
	C324.209015,526.254822 325.272766,527.093140 326.737762,526.484070 
	C328.303192,525.085815 327.169067,523.329346 327.315063,521.764832 
	C327.781799,516.763428 330.680908,513.435974 334.464661,513.807922 
	C338.529907,514.207642 342.046906,519.033142 340.518768,523.587952 
	C339.174377,527.595093 340.229218,530.061279 343.030151,532.819397 
z"/>
<path fill="#000000" opacity="1.000000" stroke="none" 
	d="
M409.225403,533.483948 
	C401.217255,530.791565 393.604462,532.333801 386.022461,534.168335 
	C385.029602,530.484497 388.422668,530.043091 389.306732,527.941345 
	C388.807037,525.025818 386.973907,522.162170 388.508881,518.882629 
	C389.887085,515.937988 391.743591,513.647522 395.193359,513.901672 
	C398.660858,514.157104 400.308472,516.755005 401.032776,519.855896 
	C401.366364,521.284180 401.200378,522.828613 401.267273,524.320007 
	C401.386627,526.981506 402.389130,528.483765 404.868378,526.270935 
	C406.732666,524.606995 408.780487,524.629639 410.916107,524.699158 
	C412.497650,524.750610 414.760529,524.252808 415.137634,526.348816 
	C415.647766,529.183716 412.743744,528.324219 411.236938,529.154419 
	C412.440338,531.134888 416.437958,531.363831 415.077606,535.004517 
	C412.751862,536.289978 411.378784,534.131653 409.225403,533.483948 
z"/>
<path fill="#000000" opacity="1.000000" stroke="none" 
	d="
M323.037537,497.782715 
	C329.774689,494.561157 336.192657,494.586609 342.577393,497.587036 
	C344.792572,498.627960 346.810974,500.178070 345.707123,502.958923 
	C344.566833,505.831482 342.169159,504.621094 340.145203,504.004639 
	C332.775970,501.759949 326.076324,503.184662 319.831177,507.513489 
	C318.299774,508.574982 316.572113,510.829315 314.675201,508.822937 
	C312.680756,506.713287 314.957153,504.850616 316.157288,503.222198 
	C317.850922,500.924133 320.175690,499.284180 323.037537,497.782715 
z"/>
<path fill="#000000" opacity="1.000000" stroke="none" 
	d="
M385.882141,503.522644 
	C384.186066,500.666534 385.661438,499.174377 387.623871,497.943939 
	C394.665222,493.529083 408.241364,496.455078 412.782135,503.388184 
	C413.761932,504.884125 415.139343,506.657684 413.619232,508.339478 
	C411.910187,510.230255 410.286438,508.503876 408.871704,507.480988 
	C403.291412,503.446259 397.228210,502.158875 390.533081,503.980499 
	C389.091888,504.372650 387.596771,504.544128 385.882141,503.522644 
z"/>
<path fill="#000000" opacity="1.000000" stroke="none" 
	d="
M273.249847,545.355713 
	C271.857941,543.126770 271.109100,540.939575 271.897614,538.866394 
	C273.345551,535.059509 271.762848,533.245728 268.330627,532.249573 
	C266.837067,531.816101 265.299835,531.300110 265.770569,529.292603 
	C266.177368,527.557678 267.711426,527.113892 269.243561,527.011108 
	C275.807861,526.571106 284.235779,537.242859 282.364655,543.655396 
	C279.550385,544.313477 279.100647,541.324707 277.103027,540.238892 
	C276.189941,542.221863 281.058899,548.475159 273.249847,545.355713 
z"/>
<path fill="#000000" opacity="1.000000" stroke="none" 
	d="
M338.489258,463.478119 
	C346.162415,458.649719 352.806549,453.152863 358.796692,446.830200 
	C360.126923,445.426086 361.612610,442.528503 363.963623,444.891479 
	C366.113647,447.052368 363.628235,448.863861 362.243805,450.320953 
	C344.763214,468.719086 323.338013,479.480621 298.312347,483.345367 
	C291.180847,484.446686 284.048309,484.421906 276.905640,484.038635 
	C274.945374,483.933472 271.876892,483.940613 272.248779,480.888428 
	C272.557434,478.354797 275.293762,478.708374 277.210571,478.839691 
	C299.175934,480.344238 319.442902,475.093811 338.489258,463.478119 
z"/>
<path fill="#000000" opacity="1.000000" stroke="none" 
	d="
M337.718628,448.753479 
	C321.651794,461.793274 304.004150,469.421936 283.246643,468.349976 
	C282.248932,468.298462 281.243652,468.358154 280.249969,468.272308 
	C278.729797,468.140900 276.998749,467.979431 277.074066,465.935516 
	C277.148285,463.921844 278.891876,463.746185 280.401672,463.785461 
	C286.747406,463.950714 293.033661,463.541473 299.269775,462.296265 
	C315.878326,458.980011 329.564636,450.598999 341.025085,438.326874 
	C341.821167,437.474396 342.570709,436.565186 343.448029,435.804840 
	C344.807495,434.626617 345.881531,431.727478 348.154541,433.871429 
	C350.190918,435.792145 347.852417,437.500763 346.786163,438.997131 
	C344.265320,442.534790 341.279663,445.677612 337.718628,448.753479 
z"/>
<path fill="#000000" opacity="1.000000" stroke="none" 
	d="
M414.626587,450.362244 
	C418.231995,454.287781 421.644562,457.906555 424.997925,461.579437 
	C426.672729,463.413849 428.373566,465.251068 429.813599,467.265045 
	C431.028534,468.964172 432.780090,471.242920 430.360474,472.897583 
	C428.139740,474.416229 427.434143,471.547852 426.360046,470.320282 
	C421.770813,465.075165 416.246216,460.720490 412.044464,455.103210 
	C409.548950,451.766937 407.311401,448.297089 405.566498,444.514496 
	C404.982330,443.248077 404.525177,441.863464 406.058533,441.025269 
	C407.695038,440.130737 408.821259,440.973541 409.701599,442.472839 
	C411.210785,445.043060 412.833954,447.546387 414.626587,450.362244 
z"/>
</svg>