<svg version="1.1" id="Layer_1" xmlns="http://www.w3.org/2000/svg" xmlns:xlink="http://www.w3.org/1999/xlink" x="0px" y="0px"
	 width="100%" viewBox="0 0 1024 1024" enable-background="new 0 0 1024 1024" xml:space="preserve">
<path fill="#FEFFFF" opacity="1.000000" stroke="none" 
	d="
M952.000000,1025.000000 
	C634.666687,1025.000000 317.833344,1025.000000 1.000000,1025.000000 
	C1.000000,683.666687 1.000000,342.333344 1.000000,1.000000 
	C342.333344,1.000000 683.666687,1.000000 1025.000000,1.000000 
	C1025.000000,342.333344 1025.000000,683.666687 1025.000000,1025.000000 
	C1000.833313,1025.000000 976.666687,1025.000000 952.000000,1025.000000 
M207.625229,541.405273 
	C215.263306,543.202637 219.911072,540.702759 223.568481,533.239502 
	C229.706512,520.714233 237.226303,508.865265 244.196869,496.750244 
	C244.760147,495.771271 245.570984,494.934753 246.266785,494.032043 
	C246.617874,494.162048 246.968948,494.292023 247.320038,494.422028 
	C247.320038,513.149963 247.320038,531.877869 247.320038,550.494141 
	C254.808014,550.494141 261.717621,550.494141 268.513306,550.494141 
	C268.513306,518.399353 268.513306,486.658142 268.513306,454.396606 
	C263.019958,454.396606 257.866791,454.657410 252.755096,454.309021 
	C249.075226,454.058167 247.158646,455.400665 245.362946,458.564453 
	C234.934402,476.938141 224.262680,495.173737 213.387634,513.949036 
	C212.285507,512.229431 211.367310,510.893921 210.546356,509.501099 
	C200.489716,492.439240 190.482407,475.348053 180.341049,458.336761 
	C179.434540,456.816193 177.747971,454.816071 176.311600,454.720306 
	C170.248291,454.316162 164.142502,454.549194 157.791321,454.549194 
	C157.791321,486.934784 157.791321,518.694092 157.791321,550.666992 
	C164.899811,550.666992 171.819794,550.666992 179.365585,550.666992 
	C179.365585,532.705872 179.365585,514.866272 179.365585,497.026733 
	C179.821915,496.881744 180.278244,496.736755 180.734558,496.591766 
	C189.498505,511.357574 198.262436,526.123352 207.625229,541.405273 
M533.132324,550.845581 
	C536.856201,551.426514 536.542969,548.902405 536.547852,546.501953 
	C536.574585,533.338745 536.644592,520.175476 536.690796,507.012268 
	C536.705627,502.789703 536.693115,498.567078 536.693115,493.103516 
	C538.579041,495.349640 539.619751,496.565033 540.634705,497.801605 
	C554.267456,514.411499 567.877502,531.040100 581.563293,547.606140 
	C582.651917,548.923889 584.209351,550.671021 585.633484,550.753113 
	C591.705139,551.103149 597.808533,550.902039 603.818604,550.902039 
	C603.818604,518.369141 603.818604,486.608734 603.818604,454.663574 
	C596.392029,454.663574 589.311829,454.663574 581.452393,454.663574 
	C581.452393,473.884735 581.452393,492.842010 581.452393,513.064026 
	C579.449829,510.690552 578.385315,509.459473 577.353638,508.201477 
	C563.620239,491.456543 549.915894,474.687683 536.118408,457.995819 
	C534.931824,456.560364 533.197998,454.735992 531.610474,454.624146 
	C525.843994,454.217987 520.031494,454.463928 514.361694,454.463928 
	C514.361694,486.888916 514.361694,518.771057 514.361694,550.846436 
	C520.569580,550.846436 526.387634,550.846436 533.132324,550.845581 
M347.496826,519.626892 
	C352.924133,519.626892 358.351471,519.626892 364.602325,519.626892 
	C364.216980,513.652710 364.475708,508.262146 363.431702,503.136902 
	C359.337677,483.038879 342.115540,471.800140 319.411560,473.982147 
	C302.230194,475.633362 287.802704,488.563934 285.102631,504.731262 
	C281.937714,523.682007 289.793396,540.356628 305.860260,547.681274 
	C319.411865,553.859253 333.418213,553.931213 347.106476,548.285889 
	C351.759003,546.367126 355.649597,542.600830 360.202759,539.462036 
	C355.279907,534.520020 351.416138,530.641174 347.564941,526.774963 
	C330.959625,540.996155 307.943817,532.955688 307.534515,519.619812 
	C320.528229,519.619812 333.513031,519.619812 347.496826,519.626892 
M685.261719,529.170166 
	C684.285645,528.391968 683.309570,527.613708 682.387695,526.878662 
	C668.493774,539.546570 644.138611,535.034485 642.430054,519.563477 
	C651.780396,519.563477 661.086670,519.563477 670.392944,519.563477 
	C679.838257,519.563477 689.283569,519.563477 699.749512,519.563477 
	C699.316223,513.630920 699.555115,508.092438 698.415344,502.853943 
	C694.019653,482.650574 676.926453,471.669037 654.210876,473.988495 
	C636.960815,475.749878 622.563538,489.028046 620.075684,505.470306 
	C617.129639,524.940918 625.888489,541.770203 643.001282,548.572815 
	C655.545715,553.559265 668.480286,553.694275 681.023193,548.764526 
	C686.046326,546.790283 690.349731,542.984680 696.468872,539.057617 
	C692.000610,535.135010 688.887146,532.401794 685.261719,529.170166 
M850.162903,514.281311 
	C850.449707,499.479980 844.876282,487.716003 832.104370,479.780670 
	C822.441406,473.777008 811.774658,472.492859 800.802368,474.122711 
	C785.845215,476.344482 774.516846,484.036804 769.494080,498.634003 
	C764.326416,513.652222 766.055054,527.936829 777.472351,539.973572 
	C787.788940,550.849792 800.993530,553.295959 815.114502,551.773254 
	C835.286499,549.597900 848.964722,535.020203 850.162903,514.281311 
M431.950256,478.790283 
	C431.947418,490.286530 432.009888,501.783447 431.894836,513.278564 
	C431.866760,516.081543 431.612732,518.980957 430.844971,521.658936 
	C428.689606,529.177124 421.166382,533.759216 412.940430,532.901428 
	C405.531433,532.128845 401.471802,527.613037 400.715271,518.951172 
	C400.382599,515.142212 400.386627,511.297455 400.371704,507.468445 
	C400.329620,496.687073 400.357025,485.905396 400.357025,475.208038 
	C392.492615,475.208038 385.262299,475.208038 377.982483,475.208038 
	C377.982483,491.582245 377.562378,507.583954 378.095795,523.553772 
	C378.676331,540.934204 390.330688,551.686523 407.750092,552.133850 
	C417.455200,552.382996 425.981567,549.708496 433.237671,541.178406 
	C433.237671,545.201599 433.237671,547.799194 433.237671,550.614258 
	C440.514771,550.614258 447.416534,550.614258 454.573975,550.614258 
	C454.573975,525.287354 454.573975,500.220734 454.573975,474.814392 
	C447.761841,474.814392 441.115662,474.701477 434.483032,474.949677 
	C433.600952,474.982666 432.787476,476.849030 431.950256,478.790283 
M704.852539,479.347595 
	C704.852539,483.778290 704.852539,488.208984 704.852539,493.025482 
	C709.165710,493.025482 712.777771,493.025482 716.756042,493.025482 
	C716.756042,504.231018 716.816223,515.031189 716.738525,525.830383 
	C716.665833,535.935852 719.820862,544.407349 729.558777,548.705139 
	C740.579468,553.569153 751.674866,553.555481 762.733215,547.474243 
	C760.757507,542.088745 758.944336,537.146423 757.117676,532.167358 
	C754.551941,532.997681 752.430603,533.951233 750.209595,534.351074 
	C744.390442,535.398865 739.704956,532.481445 739.494629,526.839417 
	C739.075928,515.607849 739.370667,504.349609 739.370667,492.600647 
	C745.845703,492.600647 751.921021,492.600647 758.072754,492.600647 
	C758.072754,486.666260 758.072754,481.242249 758.072754,475.384491 
	C751.699219,475.384491 745.619873,475.384491 739.143860,475.384491 
	C739.143860,469.010284 739.143860,463.062531 739.143860,456.916931 
	C731.492371,456.916931 724.250488,456.916931 716.559509,456.916931 
	C716.559509,463.082123 716.559509,468.987823 716.559509,474.507935 
	C715.979736,474.977142 715.853271,475.169250 715.720459,475.173706 
	C713.066223,475.263000 710.393677,475.551147 707.761475,475.340485 
	C705.134583,475.130249 704.549744,476.290283 704.852539,479.347595 
z"/>
<path fill="#1A2A5C" opacity="1.000000" stroke="none" 
	d="
M207.325806,541.147217 
	C198.262436,526.123352 189.498505,511.357574 180.734558,496.591766 
	C180.278244,496.736755 179.821915,496.881744 179.365585,497.026733 
	C179.365585,514.866272 179.365585,532.705872 179.365585,550.666992 
	C171.819794,550.666992 164.899811,550.666992 157.791321,550.666992 
	C157.791321,518.694092 157.791321,486.934784 157.791321,454.549194 
	C164.142502,454.549194 170.248291,454.316162 176.311600,454.720306 
	C177.747971,454.816071 179.434540,456.816193 180.341049,458.336761 
	C190.482407,475.348053 200.489716,492.439240 210.546356,509.501099 
	C211.367310,510.893921 212.285507,512.229431 213.387634,513.949036 
	C224.262680,495.173737 234.934402,476.938141 245.362946,458.564453 
	C247.158646,455.400665 249.075226,454.058167 252.755096,454.309021 
	C257.866791,454.657410 263.019958,454.396606 268.513306,454.396606 
	C268.513306,486.658142 268.513306,518.399353 268.513306,550.494141 
	C261.717621,550.494141 254.808014,550.494141 247.320038,550.494141 
	C247.320038,531.877869 247.320038,513.149963 247.320038,494.422028 
	C246.968948,494.292023 246.617874,494.162048 246.266785,494.032043 
	C245.570984,494.934753 244.760147,495.771271 244.196869,496.750244 
	C237.226303,508.865265 229.706512,520.714233 223.568481,533.239502 
	C219.911072,540.702759 215.263306,543.202637 207.325806,541.147217 
z"/>
<path fill="#1A2A5C" opacity="1.000000" stroke="none" 
	d="
M532.669006,550.846008 
	C526.387634,550.846436 520.569580,550.846436 514.361694,550.846436 
	C514.361694,518.771057 514.361694,486.888916 514.361694,454.463928 
	C520.031494,454.463928 525.843994,454.217987 531.610474,454.624146 
	C533.197998,454.735992 534.931824,456.560364 536.118408,457.995819 
	C549.915894,474.687683 563.620239,491.456543 577.353638,508.201477 
	C578.385315,509.459473 579.449829,510.690552 581.452393,513.064026 
	C581.452393,492.842010 581.452393,473.884735 581.452393,454.663574 
	C589.311829,454.663574 596.392029,454.663574 603.818604,454.663574 
	C603.818604,486.608734 603.818604,518.369141 603.818604,550.902039 
	C597.808533,550.902039 591.705139,551.103149 585.633484,550.753113 
	C584.209351,550.671021 582.651917,548.923889 581.563293,547.606140 
	C567.877502,531.040100 554.267456,514.411499 540.634705,497.801605 
	C539.619751,496.565033 538.579041,495.349640 536.693115,493.103516 
	C536.693115,498.567078 536.705627,502.789703 536.690796,507.012268 
	C536.644592,520.175476 536.574585,533.338745 536.547852,546.501953 
	C536.542969,548.902405 536.856201,551.426514 532.669006,550.846008 
z"/>
<path fill="#1A2B5E" opacity="1.000000" stroke="none" 
	d="
M346.997345,519.623352 
	C333.513031,519.619812 320.528229,519.619812 307.534515,519.619812 
	C307.943817,532.955688 330.959625,540.996155 347.564941,526.774963 
	C351.416138,530.641174 355.279907,534.520020 360.202759,539.462036 
	C355.649597,542.600830 351.759003,546.367126 347.106476,548.285889 
	C333.418213,553.931213 319.411865,553.859253 305.860260,547.681274 
	C289.793396,540.356628 281.937714,523.682007 285.102631,504.731262 
	C287.802704,488.563934 302.230194,475.633362 319.411560,473.982147 
	C342.115540,471.800140 359.337677,483.038879 363.431702,503.136902 
	C364.475708,508.262146 364.216980,513.652710 364.602325,519.626892 
	C358.351471,519.626892 352.924133,519.626892 346.997345,519.623352 
M333.469971,492.745148 
	C319.984283,488.165192 307.479523,494.744751 307.445282,506.461060 
	C319.167877,506.461060 330.888184,506.461060 342.640411,506.461060 
	C341.807587,499.800537 339.932556,496.877014 333.469971,492.745148 
z"/>
<path fill="#1A2B5E" opacity="1.000000" stroke="none" 
	d="
M685.517700,529.419312 
	C688.887146,532.401794 692.000610,535.135010 696.468872,539.057617 
	C690.349731,542.984680 686.046326,546.790283 681.023193,548.764526 
	C668.480286,553.694275 655.545715,553.559265 643.001282,548.572815 
	C625.888489,541.770203 617.129639,524.940918 620.075684,505.470306 
	C622.563538,489.028046 636.960815,475.749878 654.210876,473.988495 
	C676.926453,471.669037 694.019653,482.650574 698.415344,502.853943 
	C699.555115,508.092438 699.316223,513.630920 699.749512,519.563477 
	C689.283569,519.563477 679.838257,519.563477 670.392944,519.563477 
	C661.086670,519.563477 651.780396,519.563477 642.430054,519.563477 
	C644.138611,535.034485 668.493774,539.546570 682.387695,526.878662 
	C683.309570,527.613708 684.285645,528.391968 685.517700,529.419312 
M670.523865,493.766541 
	C659.937866,487.161194 642.663025,493.076355 642.467224,506.498840 
	C654.194702,506.498840 665.918823,506.498840 677.652588,506.498840 
	C677.414001,500.806885 676.131226,498.410767 670.523865,493.766541 
z"/>
<path fill="#19295C" opacity="1.000000" stroke="none" 
	d="
M850.148682,514.706665 
	C848.964722,535.020203 835.286499,549.597900 815.114502,551.773254 
	C800.993530,553.295959 787.788940,550.849792 777.472351,539.973572 
	C766.055054,527.936829 764.326416,513.652222 769.494080,498.634003 
	C774.516846,484.036804 785.845215,476.344482 800.802368,474.122711 
	C811.774658,472.492859 822.441406,473.777008 832.104370,479.780670 
	C844.876282,487.716003 850.449707,499.479980 850.148682,514.706665 
M795.622437,497.108185 
	C784.826111,508.890991 788.908142,528.984436 802.921509,533.037720 
	C811.772278,535.597717 820.651123,532.148987 824.837891,524.524780 
	C829.636475,515.786377 827.752930,502.150146 820.938599,496.295227 
	C814.166931,490.477081 804.298645,490.593903 795.622437,497.108185 
z"/>
<path fill="#1A2A5C" opacity="1.000000" stroke="none" 
	d="
M431.946259,478.328308 
	C432.787476,476.849030 433.600952,474.982666 434.483032,474.949677 
	C441.115662,474.701477 447.761841,474.814392 454.573975,474.814392 
	C454.573975,500.220734 454.573975,525.287354 454.573975,550.614258 
	C447.416534,550.614258 440.514771,550.614258 433.237671,550.614258 
	C433.237671,547.799194 433.237671,545.201599 433.237671,541.178406 
	C425.981567,549.708496 417.455200,552.382996 407.750092,552.133850 
	C390.330688,551.686523 378.676331,540.934204 378.095795,523.553772 
	C377.562378,507.583954 377.982483,491.582245 377.982483,475.208038 
	C385.262299,475.208038 392.492615,475.208038 400.357025,475.208038 
	C400.357025,485.905396 400.329620,496.687073 400.371704,507.468445 
	C400.386627,511.297455 400.382599,515.142212 400.715271,518.951172 
	C401.471802,527.613037 405.531433,532.128845 412.940430,532.901428 
	C421.166382,533.759216 428.689606,529.177124 430.844971,521.658936 
	C431.612732,518.980957 431.866760,516.081543 431.894836,513.278564 
	C432.009888,501.783447 431.947418,490.286530 431.946259,478.328308 
z"/>
<path fill="#1A2A5C" opacity="1.000000" stroke="none" 
	d="
M704.848694,478.929749 
	C704.549744,476.290283 705.134583,475.130249 707.761475,475.340485 
	C710.393677,475.551147 713.066223,475.263000 715.720459,475.173706 
	C715.853271,475.169250 715.979736,474.977142 716.559509,474.507935 
	C716.559509,468.987823 716.559509,463.082123 716.559509,456.916931 
	C724.250488,456.916931 731.492371,456.916931 739.143860,456.916931 
	C739.143860,463.062531 739.143860,469.010284 739.143860,475.384491 
	C745.619873,475.384491 751.699219,475.384491 758.072754,475.384491 
	C758.072754,481.242249 758.072754,486.666260 758.072754,492.600647 
	C751.921021,492.600647 745.845703,492.600647 739.370667,492.600647 
	C739.370667,504.349609 739.075928,515.607849 739.494629,526.839417 
	C739.704956,532.481445 744.390442,535.398865 750.209595,534.351074 
	C752.430603,533.951233 754.551941,532.997681 757.117676,532.167358 
	C758.944336,537.146423 760.757507,542.088745 762.733215,547.474243 
	C751.674866,553.555481 740.579468,553.569153 729.558777,548.705139 
	C719.820862,544.407349 716.665833,535.935852 716.738525,525.830383 
	C716.816223,515.031189 716.756042,504.231018 716.756042,493.025482 
	C712.777771,493.025482 709.165710,493.025482 704.852539,493.025482 
	C704.852539,488.208984 704.852539,483.778290 704.848694,478.929749 
z"/>
<path fill="#F2F4F6" opacity="1.000000" stroke="none" 
	d="
M333.824127,492.893250 
	C339.932556,496.877014 341.807587,499.800537 342.640411,506.461060 
	C330.888184,506.461060 319.167877,506.461060 307.445282,506.461060 
	C307.479523,494.744751 319.984283,488.165192 333.824127,492.893250 
z"/>
<path fill="#F2F4F6" opacity="1.000000" stroke="none" 
	d="
M670.843445,493.962708 
	C676.131226,498.410767 677.414001,500.806885 677.652588,506.498840 
	C665.918823,506.498840 654.194702,506.498840 642.467224,506.498840 
	C642.663025,493.076355 659.937866,487.161194 670.843445,493.962708 
z"/>
<path fill="#FEFFFF" opacity="1.000000" stroke="none" 
	d="
M795.881958,496.848541 
	C804.298645,490.593903 814.166931,490.477081 820.938599,496.295227 
	C827.752930,502.150146 829.636475,515.786377 824.837891,524.524780 
	C820.651123,532.148987 811.772278,535.597717 802.921509,533.037720 
	C788.908142,528.984436 784.826111,508.890991 795.881958,496.848541 
z"/>
</svg>